<?xml version="1.0" standalone="no"?>
<!DOCTYPE svg PUBLIC "-//W3C//DTD SVG 20010904//EN"
 "http://www.w3.org/TR/2001/REC-SVG-20010904/DTD/svg10.dtd">
<svg version="1.0" xmlns="http://www.w3.org/2000/svg"
 width="256.000000pt" height="256.000000pt" viewBox="0 0 256.000000 256.000000"
 preserveAspectRatio="xMidYMid meet">
<metadata>
Created by potrace 1.11, written by Peter Selinger 2001-2013
</metadata>
<g transform="translate(0.000000,256.000000) scale(0.100000,-0.100000)"
fill="#000000" stroke="none">
<path d="M0 1280 l0 -1280 1280 0 1280 0 0 1280 0 1280 -1280 0 -1280 0 0
-1280z m1364 575 c191 -41 343 -176 408 -363 33 -96 33 -258 0 -354 -31 -89
-85 -171 -160 -240 l-62 -57 50 -79 c27 -43 50 -84 50 -89 0 -10 -89 -73 -103
-73 -3 0 -31 42 -63 93 l-57 93 -61 -13 c-86 -18 -151 -16 -240 7 -98 25 -174
68 -245 139 -236 236 -206 654 61 844 133 95 269 124 422 92z"/>
<path d="M1128 1701 c-104 -41 -176 -108 -225 -210 -36 -75 -44 -221 -18 -306
35 -110 127 -209 232 -249 54 -20 207 -34 216 -19 3 5 -16 45 -43 89 -27 43
-50 82 -50 85 0 8 93 69 106 69 5 0 35 -43 67 -95 l58 -95 30 23 c39 28 93
102 120 163 33 73 37 194 11 281 -39 128 -140 234 -256 268 -69 21 -189 19
-248 -4z"/>
</g>
</svg>
